<svg height="512" viewBox="0 0 64 64" width="512" xmlns="http://www.w3.org/2000/svg" xmlns:xlink="http://www.w3.org/1999/xlink"><linearGradient id="New_Gradient_Swatch" gradientUnits="userSpaceOnUse" x1="32" x2="32" y1="63.88" y2="-.052"><stop offset="0" stop-color="#e93e3a"/><stop offset=".35" stop-color="#ed683c"/><stop offset=".7" stop-color="#f3903f"/><stop offset="1" stop-color="#fdc70c"/></linearGradient><linearGradient id="New_Gradient_Swatch-2" x1="52" x2="52" xlink:href="#New_Gradient_Swatch" y1="63.88" y2="-.052"/><linearGradient id="New_Gradient_Swatch-3" x1="32.002" x2="32.002" xlink:href="#New_Gradient_Swatch" y1="63.88" y2="-.052"/><linearGradient id="New_Gradient_Swatch-6" gradientTransform="matrix(.866 .5 -.5 .866 5.788 -12.651)" x1="26.5" x2="26.5" xlink:href="#New_Gradient_Swatch" y1="63.88" y2="-.052"/><linearGradient id="New_Gradient_Swatch-7" gradientTransform="matrix(.5 .866 -.866 .5 18.6 -15.213)" x1="22.474" x2="22.474" xlink:href="#New_Gradient_Swatch" y1="63.88" y2="-.052"/><linearGradient id="New_Gradient_Swatch-8" x1="21" x2="21" xlink:href="#New_Gradient_Swatch" y1="63.88" y2="-.052"/><linearGradient id="New_Gradient_Swatch-9" gradientTransform="matrix(.866 .5 -.5 .866 12.758 -8.623)" x1="22.474" x2="22.474" xlink:href="#New_Gradient_Swatch" y1="63.88" y2="-.052"/><linearGradient id="New_Gradient_Swatch-10" gradientTransform="matrix(.5 .866 -.866 .5 37.655 -26.213)" x1="41.526" x2="41.526" xlink:href="#New_Gradient_Swatch" y1="63.88" y2="-.052"/><linearGradient id="New_Gradient_Swatch-11" x1="43" x2="43" xlink:href="#New_Gradient_Swatch" y1="63.88" y2="-.052"/><linearGradient id="New_Gradient_Swatch-12" gradientTransform="matrix(.866 .5 -.5 .866 9.811 -19.621)" x1="41.526" x2="41.526" xlink:href="#New_Gradient_Swatch" y1="63.88" y2="-.052"/><linearGradient id="New_Gradient_Swatch-13" gradientTransform="matrix(.5 .866 -.866 .5 22.628 -30.24)" x1="37.5" x2="37.5" xlink:href="#New_Gradient_Swatch" y1="63.88" y2="-.052"/><linearGradient id="New_Gradient_Swatch-15" x1="45" x2="45" xlink:href="#New_Gradient_Swatch" y1="63.88" y2="-.052"/><linearGradient id="New_Gradient_Swatch-17" x1="19" x2="19" xlink:href="#New_Gradient_Swatch" y1="63.88" y2="-.052"/><g id="Computer-Light_Bulb-Idea-Learning-Education" data-name="Computer-Light Bulb-Idea-Learning-Education"><path d="m54 10h-9v2h9a3.009 3.009 0 0 1 3 3v25h-50v-25a3.009 3.009 0 0 1 3-3h9v-2h-9a5 5 0 0 0 -5 5v30a5 5 0 0 0 5 5h13.87l-.75 6h-1.12a3 3 0 0 0 0 6h20a3 3 0 0 0 0-6h-1.12l-.75-6h13.87a5 5 0 0 0 5-5v-30a5 5 0 0 0 -5-5zm-12 48a1 1 0 0 1 0 2h-20a1 1 0 0 1 0-2zm-16.87-2 .75-6h12.24l.75 6zm31.87-11a3.009 3.009 0 0 1 -3 3h-44a3.009 3.009 0 0 1 -3-3v-3h50z" fill="url(#New_Gradient_Swatch)"/><path d="m51 44h2v2h-2z" fill="url(#New_Gradient_Swatch-2)"/><path d="m37.53 19.77a8 8 0 0 0 -5.67-13.77 8.09 8.09 0 0 0 -7.85 7.71 7.973 7.973 0 0 0 2.38 5.99 5.155 5.155 0 0 1 1.57 3.3h-1.96v2h2v2a2.006 2.006 0 0 0 2 2h4a2.006 2.006 0 0 0 2-2v-2h2v-2h-1.96a5 5 0 0 1 1.49-3.23zm-3.53 7.23h-4v-2h4zm.01-4h-4.02a7.147 7.147 0 0 0 -2.2-4.73 5.947 5.947 0 0 1 -1.79-4.49 6.073 6.073 0 0 1 5.9-5.78 5.991 5.991 0 0 1 4.25 10.32 7.021 7.021 0 0 0 -2.14 4.68z" fill="url(#New_Gradient_Swatch-3)"/><path d="m31 16.816v4.184h2v-4.184a3 3 0 0 0 2-2.816h-2a1 1 0 0 1 -2 0h-2a3 3 0 0 0 2 2.816z" fill="url(#New_Gradient_Swatch)"/><path d="m31 2h2v2h-2z" fill="url(#New_Gradient_Swatch)"/><path d="m25.5 3.474h2v2h-2z" fill="url(#New_Gradient_Swatch-6)" transform="matrix(.866 -.5 .5 .866 1.314 13.85)"/><path d="m21.473 7.5h2v2h-2z" fill="url(#New_Gradient_Swatch-7)" transform="matrix(.5 -.866 .866 .5 3.877 23.714)"/><path d="m20 13h2v2h-2z" fill="url(#New_Gradient_Swatch-8)"/><path d="m21.473 18.5h2v2h-2z" fill="url(#New_Gradient_Swatch-9)" transform="matrix(.866 -.5 .5 .866 -6.739 13.847)"/><path d="m40.526 18.5h2v2h-2z" fill="url(#New_Gradient_Swatch-10)" transform="matrix(.5 -.866 .866 .5 3.878 45.716)"/><path d="m42 13h2v2h-2z" fill="url(#New_Gradient_Swatch-11)"/><path d="m40.526 7.5h2v2h-2z" fill="url(#New_Gradient_Swatch-12)" transform="matrix(.866 -.5 .5 .866 1.312 21.898)"/><path d="m36.5 3.474h2v2h-2z" fill="url(#New_Gradient_Swatch-13)" transform="matrix(.5 -.866 .866 .5 14.878 34.715)"/><path d="m55 15v22a1 1 0 0 1 -1 1h-44a1 1 0 0 1 -1-1v-22a1 1 0 0 1 1-1h8v2h-7v20h42v-20h-7v-2h8a1 1 0 0 1 1 1z" fill="url(#New_Gradient_Swatch)"/><path d="m41 28h8v2h-8z" fill="url(#New_Gradient_Swatch-15)"/><path d="m41 32h8v2h-8z" fill="url(#New_Gradient_Swatch-15)"/><g fill="url(#New_Gradient_Swatch-17)"><path d="m15 28h8v2h-8z"/><path d="m15 32h8v2h-8z"/></g></g></svg>