<svg height="512" viewBox="0 0 128 128" width="512" xmlns="http://www.w3.org/2000/svg" xmlns:xlink="http://www.w3.org/1999/xlink"><linearGradient id="a" gradientUnits="userSpaceOnUse" x1="97.039" x2="30.958" y1="97.039" y2="30.958"><stop offset="0" stop-color="#2568ef"/><stop offset="1" stop-color="#37d4e9"/></linearGradient><path d="m110.75 64a46.542 46.542 0 0 1 -3.25 17.165 1.75 1.75 0 0 1 -3.256-1.285 43.292 43.292 0 1 0 -10.72 15.728 1.75 1.75 0 0 1 2.389 2.558 46.751 46.751 0 1 1 14.837-34.166zm-8.05 23.031a1.751 1.751 0 0 0 -2.421.517l-.329.5a1.75 1.75 0 1 0 2.91 1.952c.122-.182.243-.363.361-.545a1.752 1.752 0 0 0 -.521-2.424zm-17.532-36.067-13.036 13.036 13.036 13.036a5.75 5.75 0 1 1 -8.131 8.132l-13.037-13.037-13.037 13.037a5.75 5.75 0 1 1 -8.131-8.132l13.036-13.036-13.036-13.036a5.75 5.75 0 1 1 8.131-8.132l13.037 13.037 13.037-13.037a5.75 5.75 0 1 1 8.131 8.132zm-1.815-4.064a2.236 2.236 0 0 0 -.66-1.591 2.3 2.3 0 0 0 -3.18 0l-14.276 14.272a1.75 1.75 0 0 1 -2.474 0l-14.275-14.274a2.3 2.3 0 0 0 -3.18 0 2.248 2.248 0 0 0 0 3.183l14.272 14.273a1.748 1.748 0 0 1 0 2.474l-14.273 14.274a2.248 2.248 0 0 0 0 3.182 2.3 2.3 0 0 0 3.18 0l14.276-14.274a1.75 1.75 0 0 1 2.474 0l14.275 14.274a2.3 2.3 0 0 0 3.18 0 2.248 2.248 0 0 0 0-3.183l-14.272-14.273a1.748 1.748 0 0 1 0-2.474l14.273-14.274a2.236 2.236 0 0 0 .66-1.589z" fill="url(#a)"/></svg>