<?xml version="1.0" encoding="iso-8859-1"?>
<!-- Generator: Adobe Illustrator 19.0.0, SVG Export Plug-In . SVG Version: 6.00 Build 0)  -->
<svg version="1.1" id="Capa_1" xmlns="http://www.w3.org/2000/svg" xmlns:xlink="http://www.w3.org/1999/xlink" x="0px" y="0px"
	 viewBox="0 0 511.999 511.999" style="enable-background:new 0 0 511.999 511.999;" xml:space="preserve">
<path style="fill:#FFEB99;" d="M503.268,189.157c0.031,0.168-0.042,0.346-0.189,0.451c-0.073,0.052-2.579,1.782-6.992,4.833
	c-31.67,21.942-162.021,112.267-205.506,142.406h-0.01c-8.167,5.672-13.272,9.204-14.069,9.76c-0.073,0.052-0.115,0.073-0.115,0.073
	c-0.094,0.063-0.21-0.01-0.21-0.115c0.042-1.227,0.262-7.464,0.608-17.277c1.918-54.22,7.684-217.625,8.817-249.567
	c0.105-2.778,0.168-4.55,0.189-5.189c0.084-2.254,1.468-4.246,3.564-5.105c1.426-0.577,3.407-1.384,5.871-2.38
	c29.773-11.972,129.837-51.767,159.505-63.529c5.294-2.107,8.355-3.313,8.366-3.313c0.566-0.231,1.143-0.252,1.688-0.126
	c1.048,0.241,1.918,1.069,2.139,2.212c0,0,0.608,3.145,1.677,8.628c6.007,30.884,26.418,135.886,32.771,168.489
	C502.565,185.582,503.268,189.157,503.268,189.157z"/>
<path style="fill:#FFDA44;" d="M503.268,189.157c0.031,0.168-0.042,0.346-0.189,0.451c-0.073,0.052-2.579,1.782-6.992,4.833
	c-31.67,21.942-162.021,112.267-205.506,142.406h-0.01c-8.167,5.672-13.272,9.204-14.069,9.76L464.783,0.078
	c1.048,0.241,1.918,1.069,2.139,2.212c0,0,0.608,3.145,1.677,8.628c6.007,30.884,26.418,135.886,32.771,168.489
	C502.565,185.582,503.268,189.157,503.268,189.157z"/>
<path style="fill:#5AAAE7;" d="M85.795,446.831l17.41-16.505c3.469-3.289,9.195-1.645,10.391,2.984l9.168,35.475l-34.62-11.444
	C83.639,455.852,82.352,450.095,85.795,446.831z"/>
<path style="fill:#1E81CE;" d="M143.832,506.525l-23.394,5.313c-4.662,1.059-8.747-3.276-7.415-7.867l10.215-35.187l23.938,27.505
	C150.29,499.867,148.459,505.475,143.832,506.525z"/>
<path style="fill:#FF6243;" d="M192.191,370.444l17.066-28.103c3.362-5.536,11.434-5.429,14.648,0.195l24.829,43.445l-49.726-2.633
	C192.588,383.006,188.854,375.939,192.191,370.444z"/>
<path style="fill:#CD2A00;" d="M290.061,428.021l-29.016,15.463c-5.717,3.046-12.604-1.164-12.499-7.641l0.812-50.033l41.423,27.635
	C296.129,417.014,295.734,424.997,290.061,428.021z"/>
<path style="fill:#FFDE55;" d="M132.61,419.797l19.427-26.526c3.827-5.226,11.86-4.423,14.577,1.457l20.99,45.424l-49.314-6.913
	C131.921,432.348,128.811,424.985,132.61,419.797z"/>
<path style="fill:#FFCD00;" d="M225.149,485.6l-30.241,12.903c-5.958,2.542-12.456-2.247-11.794-8.691l5.124-49.776l38.885,31.105
	C232.143,475.158,231.061,483.078,225.149,485.6z"/>
<g>
	<ellipse style="fill:#FF7956;" cx="386.469" cy="90.786" rx="6.735" ry="12.496"/>
	
		<ellipse transform="matrix(0.9328 -0.3605 0.3605 0.9328 -13.3203 162.2496)" style="fill:#FF7956;" cx="428.294" cy="116.834" rx="12.036" ry="6.487"/>
	
		<ellipse transform="matrix(0.0417 0.9991 -0.9991 0.0417 559.3274 -237.6696)" style="fill:#FF7956;" cx="403.562" cy="172.745" rx="12.496" ry="6.734"/>
	
		<ellipse transform="matrix(-0.9169 0.3991 -0.3991 -0.9169 743.468 135.4559)" style="fill:#FF7956;" cx="357.633" cy="145.124" rx="12.496" ry="6.734"/>
</g>
<g>
	<path style="fill:#B3D8F4;" d="M62.507,256.094c-27.45,0-44.605-5.46-45.536-5.763c-4.128-1.346-6.384-5.785-5.038-9.913
		c1.345-4.125,5.776-6.378,9.902-5.041c0.532,0.168,27.902,8.655,68.179,3.067c37.336-5.179,93.814-23.888,150.849-83.609
		c2.998-3.141,7.975-3.255,11.117-0.256c3.14,2.999,3.254,7.976,0.255,11.117c-60.504,63.353-120.94,83.067-160.987,88.45
		C80.776,255.554,71.131,256.094,62.507,256.094z"/>
	<path style="fill:#B3D8F4;" d="M102.972,298.422c-3.874,0-7.248-2.863-7.782-6.809c-0.583-4.303,2.433-8.264,6.737-8.846
		c35.542-4.812,71.851-19.605,105.002-42.781c3.56-2.488,8.461-1.62,10.949,1.939c2.488,3.559,1.62,8.461-1.939,10.949
		c-35.195,24.603-73.889,40.329-111.902,45.475C103.679,298.399,103.323,298.422,102.972,298.422z"/>
</g>
<g>
	<path style="fill:#FF7956;" d="M477.982,59.184c-1.111,0.052-2.233,0.073-3.355,0.073c-29.102,0-54.964-13.828-71.392-35.277
		c32.886-13.073,59.85-23.776,59.86-23.776c1.646-0.66,3.491,0.346,3.826,2.086C466.932,2.343,471.807,27.419,477.982,59.184z"/>
	<path style="fill:#FF7956;" d="M354.676,292.428c-42.856,29.699-78.29,54.251-78.29,54.251c-0.094,0.063-0.21-0.01-0.21-0.115
		c0,0,1.468-41.661,3.271-92.6c0.493-0.021,0.996-0.021,1.499-0.021C311.474,253.944,338.437,269.166,354.676,292.428z"/>
	<path style="fill:#FF7956;" d="M503.268,189.157c0.031,0.168-0.042,0.346-0.189,0.451c-0.031,0.021-20.558,14.247-49.261,34.134
		c-2.202-7.8-3.386-16.019-3.386-24.521c0-31.272,15.977-58.812,40.214-74.904C497.544,159.782,503.257,189.157,503.268,189.157z"/>
	<path style="fill:#FF7956;" d="M347.453,46.174c-0.849,39.659-27.383,72.985-63.634,84.003c0.943-26.733,1.677-47.553,1.971-55.646
		c0.084-2.254,1.468-4.246,3.564-5.105C297.793,65.987,320.815,56.794,347.453,46.174z"/>
</g>
<path style="fill:#FF9811;" d="M501.37,179.407l-96.175-52.417l63.404-116.072c-1.069-5.483-1.677-8.628-1.677-8.628
	c-0.335-1.74-2.181-2.747-3.826-2.086c-0.01,0-3.072,1.206-8.366,3.313l-63.341,115.957l-96.164-52.427
	c-2.464,0.996-4.445,1.803-5.871,2.38c-2.097,0.86-3.48,2.851-3.564,5.105c-0.021,0.639-0.084,2.411-0.189,5.189l98.25,53.549
	C267.19,346.856,249.799,420.949,115.097,463.359c-53.328,16.789-97.956,16.375-98.395,16.376c-4.336-0.067-7.914,3.403-7.978,7.745
	c-0.065,4.342,3.403,7.914,7.745,7.978c0.132,0.002,0.474,0.006,1.016,0.006c7.243,0,50.058-0.729,101.843-16.951
	c32.779-10.268,62.307-24.656,87.763-42.761c58.769-41.798,78.027-90.845,83.48-98.905h0.01l107.077-196.05l98.428,53.643
	c4.414-3.051,6.919-4.78,6.992-4.833c0.147-0.105,0.22-0.283,0.189-0.451C503.268,189.157,502.565,185.582,501.37,179.407z"/>
<g>
</g>
<g>
</g>
<g>
</g>
<g>
</g>
<g>
</g>
<g>
</g>
<g>
</g>
<g>
</g>
<g>
</g>
<g>
</g>
<g>
</g>
<g>
</g>
<g>
</g>
<g>
</g>
<g>
</g>
</svg>
