<svg id="Capa_1" enable-background="new 0 0 512 512" height="512" viewBox="0 0 512 512" width="512" xmlns="http://www.w3.org/2000/svg"><g><g><g><g><g><g><g><path d="m270.347 151.701h-28.694l-134.777 187.545 97.212 133.524h103.824l97.212-133.524zm-14.347 213.726c-20.044 0-36.293-16.33-36.293-36.474s16.249-36.474 36.293-36.474 36.293 16.33 36.293 36.474-16.249 36.474-36.293 36.474z" fill="#e2c4ff"/></g></g></g></g></g></g><g fill="#020288"><path d="m502 29.229h-55.773c-5.522 0-10 4.477-10 10v18.026h-145.12c-4.403-15.172-18.383-26.292-34.903-26.292-16.521 0-30.501 11.119-34.904 26.292h-145.527v-18.026c0-5.523-4.478-10-10-10h-55.773c-5.522 0-10 4.477-10 10v56.052c0 5.523 4.478 10 10 10h55.773c5.522 0 10-4.477 10-10v-18.026h93.393c-24.389 11.772-46.388 28.494-64.491 49.338-31.879 36.708-49.435 83.784-49.435 132.557 0 5.523 4.478 10 10 10s10-4.477 10-10c0-87.106 62.699-162.533 147.061-178.557 5.269 13.633 18.479 23.325 33.902 23.325 15.396 0 28.586-9.657 33.874-23.252 84.111 16.174 146.681 91.657 146.681 178.484 0 5.523 4.478 10 10 10s10-4.477 10-10c0-48.594-17.442-95.54-49.115-132.188-18.156-21.008-40.274-37.861-64.814-49.707h93.397v18.026c0 5.523 4.478 10 10 10h55.774c5.522 0 10-4.477 10-10v-56.052c0-5.522-4.478-10-10-10zm-446.227 56.052h-35.773v-36.052h35.773zm200.431-1.363c-9.014 0-16.347-7.392-16.347-16.478 0-9.085 7.333-16.477 16.347-16.477 9.013 0 16.346 7.392 16.346 16.477 0 9.087-7.333 16.478-16.346 16.478zm235.796 1.363h-35.773v-36.052h35.773z"/><path d="m256 193.183c-5.522 0-10 4.477-10 10v80.389c-20.736 4.601-36.293 23.202-36.293 45.382 0 25.625 20.767 46.474 46.293 46.474s46.293-20.848 46.293-46.474c0-22.18-15.557-40.78-36.293-45.382v-80.389c0-5.523-4.478-10-10-10zm26.293 135.77c0 14.598-11.795 26.474-26.293 26.474s-26.293-11.876-26.293-26.474 11.795-26.474 26.293-26.474 26.293 11.876 26.293 26.474z"/><path d="m350.784 462.771h-189.568c-5.522 0-10 4.477-10 10s4.478 10 10 10h189.568c5.522 0 10-4.477 10-10s-4.477-10-10-10z"/></g></g></svg>