<svg id="Capa_1" enable-background="new 0 0 512 512" height="512" viewBox="0 0 512 512" width="512" xmlns="http://www.w3.org/2000/svg"><g><path d="m413.559 122.978-87.803 50.17-25.195-100.781h-14.561-14.561l-25.195 100.781-87.803-50.17-21.474 18.295 48.633 130.727h100.4 100.4l48.633-130.727z" fill="#ffdf40"/><path d="m435.033 141.273-21.474-18.295-87.803 50.17-25.195-100.781h-14.561v199.633h100.4z" fill="#ffbe40"/><g><path d="m136 151c-24.814 0-45-20.186-45-45s20.186-45 45-45 45 20.186 45 45-20.186 45-45 45z" fill="#ffbe40"/></g><g><path d="m286 0c-24.814 0-45 21.186-45 46s20.186 45 45 45 45-20.186 45-45-20.186-46-45-46z" fill="#ffbe40"/><path d="m331 46c0-24.814-20.186-46-45-46v91c24.814 0 45-20.186 45-45z" fill="#ff9f40"/><path d="m501.034 298.741c-17.981-17.759-47.921-15.038-65.793 2.831l-69.073 68.474c-14.06 14.057-33.128 21.954-53.01 21.954h-27.158-128v-30h128 30v-60h-30-155.136c-19.898 0-38.979 7.903-53.047 21.973l-77.817 76.816 112.211 111.211 60-60h113.789 27.158c35.803 0 70.14-14.22 95.46-39.534l103.382-102.761s-10.845-10.845-10.966-10.964z" fill="#ffe1cc"/><g fill="#ffccb3"><path d="m286 302h30v60h-30z"/><path d="m408.618 412.466 103.382-102.761s-10.845-10.845-10.966-10.964c-17.981-17.759-47.921-15.038-65.793 2.831l-69.073 68.474c-14.06 14.057-33.128 21.954-53.01 21.954h-27.158v60h27.158c35.803 0 70.141-14.22 95.46-39.534z"/></g></g><g><path d="m436 151c-24.814 0-45-20.186-45-45s20.186-45 45-45 45 20.186 45 45-20.186 45-45 45z" fill="#ff9f40"/></g></g></svg>