<svg id="flat" height="512" viewBox="0 0 512 512" width="512" xmlns="http://www.w3.org/2000/svg"><path d="m176 360h16v72h-16z" fill="#ffc431"/><path d="m320 360h16v72h-16z" fill="#ffc431"/><path d="m136 384h48v-270.05891a81.94105 81.94105 0 0 0 -24-57.94109 81.94105 81.94105 0 0 0 -24 57.94107z" fill="#ef5e3b"/><path d="m136 128h48v16h-48z" fill="#e35430"/><path d="m288 400a55.23664 55.23664 0 0 1 -11.41749 70.3578l-20.58251 17.6422-20.58253-17.64216a55.23664 55.23664 0 0 1 -11.41747-70.35784z" fill="#ffc431"/><path d="m328 384h48v-270.05891a81.94105 81.94105 0 0 0 -24-57.94109 81.94105 81.94105 0 0 0 -24 57.94107z" fill="#ef5e3b"/><path d="m328 128h48v16h-48z" fill="#e35430"/><path d="m184 368 16 32h112l16-32z" fill="#4976f2"/><path d="m408 312v24h-80v32h-144v-32h-80v-24l80-104v-88l28-48 19.93994-34.17993a27.848 27.848 0 0 1 48.12012 0l19.93994 34.17993 28 48v88z" fill="#548aff"/><path d="m300 72h-88l19.93994-34.17993a27.848 27.848 0 0 1 48.12012 0z" fill="#4976f2"/><path d="m280 120h-48a8 8 0 0 1 0-16h48a8 8 0 0 1 0 16z" fill="#7dafff"/><g fill="#b2c6eb"><path d="m32 336h16v104h-16z"/><path d="m32 456h16v24h-16z"/><path d="m64 288h16v80h-16z"/><path d="m64 384h16v24h-16z"/><path d="m464 336h16v104h-16z"/><path d="m464 456h16v24h-16z"/><path d="m432 288h16v80h-16z"/><path d="m432 384h16v24h-16z"/><path d="m72 144v-16h16v-16h-16v-16h-16v16h-16v16h16v16z"/><path d="m440 138.947h-16v18.527h-16v16h16v18.526h16v-18.526h16v-16h-16z"/><path d="m88 168h24v16h-24z"/><path d="m16 192h24v16h-24z"/><path d="m72 232h24v16h-24z"/><path d="m408 69.053h24v16h-24z"/><path d="m432 16h24v16h-24z"/><path d="m472 69.053h24v16h-24z"/></g><path d="m144 384h16v72h-16z" fill="#ffc431"/><path d="m144 472h16v16h-16z" fill="#ffc431"/><path d="m176 448h16v16h-16z" fill="#ffc431"/><path d="m352 384h16v72h-16z" fill="#ffc431"/><path d="m352 472h16v16h-16z" fill="#ffc431"/><path d="m320 448h16v16h-16z" fill="#ffc431"/><path d="m248 328h16v112h-16z" fill="#7dafff"/><path d="m328 208 80 104v24h-80z" fill="#4976f2"/></svg>