<svg id="Capa_1" enable-background="new 0 0 512 512" height="512" viewBox="0 0 512 512" width="512" xmlns="http://www.w3.org/2000/svg" xmlns:xlink="http://www.w3.org/1999/xlink"><linearGradient id="SVGID_1_" gradientUnits="userSpaceOnUse" x1="256" x2="256" y1="482" y2="0"><stop offset="0" stop-color="#addcff"/><stop offset=".5028" stop-color="#eaf6ff"/><stop offset="1" stop-color="#eaf6ff"/></linearGradient><linearGradient id="SVGID_2_" gradientUnits="userSpaceOnUse" x1="256" x2="256" y1="512" y2="212"><stop offset="0" stop-color="#5558ff"/><stop offset="1" stop-color="#00c0ff"/></linearGradient><g><g><g><path d="m226 452h-120c-8.262 0-15-6.724-15-15v-60c0-8.291-6.709-15-15-15s-15 6.709-15 15v60c0 24.814 20.186 45 45 45h120c8.291 0 15-6.709 15-15s-6.709-15-15-15zm0-240h-60c-8.291 0-15 6.709-15 15s6.709 15 15 15h45v30h-45c-8.291 0-15 6.709-15 15v60c0 8.291 6.709 15 15 15h60c8.291 0 15-6.709 15-15s-6.709-15-15-15h-45v-30h45c8.291 0 15-6.709 15-15v-60c0-8.291-6.709-15-15-15zm120 0c-8.291 0-15 6.709-15 15v45h-30v-45c0-8.291-6.709-15-15-15s-15 6.709-15 15v60c0 8.291 6.709 15 15 15h45v45c0 8.291 6.709 15 15 15s15-6.709 15-15c0-3.142 0-116.086 0-120 0-8.291-6.709-15-15-15zm-90-212c-107.52 0-195 87.48-195 195v32c0 8.291 6.709 15 15 15s15-6.709 15-15v-32c0-90.981 74.033-165 165-165s165 74.019 165 165v32c0 8.291 6.709 15 15 15s15-6.709 15-15v-32c0-107.52-87.48-195-195-195z" fill="url(#SVGID_1_)"/></g></g><g><g><path d="m106 212h-45c-33.076 0-61 26.909-61 60v60c0 33.091 27.924 60 61 60h45c8.291 0 15-6.709 15-15v-150c0-8.291-6.709-15-15-15zm180 210h-30c-24.814 0-45 20.186-45 45s20.186 45 45 45h30c24.814 0 45-20.186 45-45s-20.186-45-45-45zm165-210h-45c-8.291 0-15 6.709-15 15v150c0 8.291 6.709 15 15 15h45c33.076 0 61-26.909 61-60v-60c0-33.091-27.924-60-61-60z" fill="url(#SVGID_2_)"/></g></g></g></svg>