<svg id="_x33_0" enable-background="new 0 0 64 64" height="512" viewBox="0 0 64 64" width="512" xmlns="http://www.w3.org/2000/svg" xmlns:xlink="http://www.w3.org/1999/xlink"><linearGradient id="SVGID_1_" gradientUnits="userSpaceOnUse" x1="31.916" x2="31.916" y1="63" y2="1"><stop offset="0" stop-color="#9f2fff"/><stop offset="1" stop-color="#0bb1d3"/></linearGradient><path d="m54 57c-1.654 0-3 1.346-3 3s1.346 3 3 3 3-1.346 3-3-1.346-3-3-3zm0 4c-.552 0-1-.448-1-1s.448-1 1-1 1 .448 1 1-.448 1-1 1zm8.671-8.807-1.342 1.482c-4.041-3.658-10.617-3.658-14.658 0l-1.342-1.482c4.781-4.33 12.561-4.33 17.342 0zm-3.023 3.026-1.396 1.432c-2.344-2.285-6.16-2.285-8.504 0l-1.396-1.432c3.115-3.037 8.181-3.037 11.296 0zm1.52-19.774 1.664 1.109-4.832 7.249-4.832-7.248 1.664-1.109 2.168 3.251v-30.697c0-.552-.448-1-1-1h-9v-2h9c1.654 0 3 1.346 3 3v30.697zm-28.168-29.445c0-1.654-1.346-3-3-3s-3 1.346-3 3 1.346 3 3 3 3-1.346 3-3zm-4 0c0-.552.448-1 1-1s1 .448 1 1-.448 1-1 1-1-.448-1-1zm6 0c0 2.757 2.243 5 5 5s5-2.243 5-5-2.243-5-5-5-5 2.243-5 5zm8 0c0 1.654-1.346 3-3 3s-3-1.346-3-3 1.346-3 3-3 3 1.346 3 3zm-35 51h9v2h-9c-1.654 0-3-1.346-3-3v-14.697l-2.168 3.252-1.664-1.109 4.832-7.249 4.832 7.248-1.664 1.109-2.168-3.251v14.697c0 .552.448 1 1 1zm26-2c-1.654 0-3 1.346-3 3s1.346 3 3 3 3-1.346 3-3-1.346-3-3-3zm0 4c-.552 0-1-.448-1-1s.448-1 1-1 1 .448 1 1-.448 1-1 1zm-10-6c-2.757 0-5 2.243-5 5s2.243 5 5 5 5-2.243 5-5-2.243-5-5-5zm0 8c-1.654 0-3-1.346-3-3s1.346-3 3-3 3 1.346 3 3-1.346 3-3 3zm27-29c0-10.477-8.523-19-19-19-3.17 0-6.244.788-9 2.274v-10.274c0-2.206-1.794-4-4-4h-14c-2.206 0-4 1.794-4 4v24c0 2.206 1.794 4 4 4h8.051c.525 10.011 8.81 18 18.949 18 10.477 0 19-8.523 19-19zm-28.537-1c.342-.589.537-1.272.537-2v-6h3.207c-.638 2.266-1.091 4.932-1.176 8zm-13.463-17c0-1.654 1.346-3 3-3s3 1.346 3 3-1.346 3-3 3-3-1.346-3-3zm8 11h-10v-1c0-2.757 2.243-5 5-5s5 2.243 5 5zm-1.779-7.208c1.079-.918 1.779-2.268 1.779-3.792 0-2.757-2.243-5-5-5s-5 2.243-5 5c0 1.524.7 2.874 1.779 3.792-2.242 1.168-3.779 3.51-3.779 6.208v1h-2v-18h18v18h-2v-1c0-2.698-1.537-5.04-3.779-6.208zm13.078 5.208h7.402c.68 2.221 1.175 4.899 1.268 8h-9.939c.093-3.101.589-5.779 1.269-8zm.706-2c1.047-2.652 2.249-4.471 2.995-5.443.746.972 1.949 2.791 2.995 5.443zm19.944 10h-9.98c-.085-3.068-.538-5.734-1.176-8h8.602c1.473 2.347 2.383 5.073 2.554 8zm0 2c-.172 2.927-1.081 5.653-2.554 8h-8.602c.638-2.266 1.091-4.932 1.176-8zm-11.98 0c-.093 3.101-.588 5.779-1.268 8h-7.403c-.68-2.221-1.175-4.899-1.268-8zm-1.974 10c-1.047 2.653-2.25 4.471-2.995 5.443-.746-.972-1.949-2.791-2.996-5.443zm-.796 5.841c.889-1.282 2.018-3.227 2.961-5.841h7.779c-2.672 3.137-6.457 5.284-10.74 5.841zm10.739-27.841h-7.778c-.944-2.615-2.072-4.559-2.961-5.841 4.283.557 8.068 2.704 10.739 5.841zm-15.129-5.851c-.891 1.281-2.022 3.229-2.969 5.851h-3.84v-3.411c2.076-1.301 4.39-2.129 6.809-2.44zm-24.809-12.149h14c1.103 0 2 .897 2 2h-18c0-1.103.897-2 2-2zm-2 26v-2h18v2c0 1.103-.897 2-2 2h-14c-1.103 0-2-.897-2-2zm22.03 4c.085 3.068.538 5.734 1.176 8h-8.602c-1.473-2.347-2.382-5.073-2.554-8zm-5.968 10h7.779c.944 2.615 2.072 4.559 2.961 5.841-4.284-.557-8.069-2.704-10.74-5.841z" fill="url(#SVGID_1_)"/></svg>