<svg id="assign-task" enable-background="new 0 0 300 300" height="512" viewBox="0 0 300 300" width="512" xmlns="http://www.w3.org/2000/svg" xmlns:xlink="http://www.w3.org/1999/xlink"><linearGradient id="SVGID_1_" gradientUnits="userSpaceOnUse" x1="59.031" x2="243.997" y1="243.656" y2="58.69"><stop offset="0" stop-color="#107eff"/><stop offset="1" stop-color="#8f16ff"/></linearGradient><g><path d="m88 244.344-2.828 2.828 2.828 2.828c1.562 1.562 1.562 4.094 0 5.656-.781.781-1.805 1.172-2.828 1.172s-2.047-.391-2.828-1.172l-2.828-2.828-2.828 2.828c-.781.781-1.805 1.172-2.828 1.172s-2.047-.391-2.828-1.172c-1.562-1.562-1.562-4.094 0-5.656l2.828-2.828-2.828-2.828c-1.562-1.562-1.562-4.094 0-5.656s4.094-1.562 5.656 0l2.828 2.828 2.828-2.828c1.562-1.562 4.094-1.562 5.656 0s1.562 4.093 0 5.656zm123.516-189.172c0-6.617 5.383-12 12-12s12 5.383 12 12-5.383 12-12 12-12-5.383-12-12zm8 0c0 2.205 1.793 4 4 4s4-1.795 4-4-1.793-4-4-4-4 1.795-4 4zm-14.277 82c0 2.362 1.915 4.276 4.276 4.276s4.276-1.915 4.276-4.276-1.915-4.277-4.276-4.277-4.276 1.915-4.276 4.277zm-165.723-38v-24c0-2.209 1.789-4 4-4h88c2.211 0 4 1.791 4 4v24c0 2.209-1.789 4-4 4h-88c-2.211 0-4-1.791-4-4zm168 100h-164c-2.211 0-4-1.791-4-4v-24c0-2.209 1.789-4 4-4h164c2.211 0 4 1.791 4 4v24c0 2.209-1.789 4-4 4zm-4-24h-156v16h156zm44 44v24c0 2.209-1.789 4-4 4h-120c-2.211 0-4-1.791-4-4v-24c0-2.209 1.789-4 4-4h120c2.211 0 4 1.791 4 4zm-8 4h-112v16h112zm-76-104c2.211 0 4 1.791 4 4v24c0 2.209-1.789 4-4 4h-84c-2.211 0-4-1.791-4-4v-24c0-2.209 1.789-4 4-4zm-4 8h-76v16h76zm36-36h40v60c0 2.209 1.789 4 4 4s4-1.791 4-4v-64c0-2.209-1.789-4-4-4h-44c-2.211 0-4 1.791-4 4s1.789 4 4 4zm-51.797-1.172c-1.562-1.562-1.562-4.094 0-5.656l16.969-16.971c1.5-1.5 4.156-1.5 5.656 0l16.969 16.971c1.562 1.562 1.562 4.094 0 5.656l-16.969 16.971c-.75.75-1.766 1.172-2.828 1.172s-2.078-.422-2.828-1.172zm8.484-2.828 11.312 11.314 11.312-11.314-11.312-11.314zm107.109 98.828-16.969 16.971c-.75.75-1.766 1.172-2.828 1.172s-2.078-.422-2.828-1.172l-16.968-16.971c-1.562-1.562-1.562-4.094 0-5.656l16.969-16.971c1.5-1.5 4.156-1.5 5.656 0l16.969 16.971c1.562 1.562 1.562 4.094-.001 5.656z" fill="url(#SVGID_1_)"/></g></svg>